<svg width="151" height="62" viewBox="0 0 151 62" fill="none" xmlns="http://www.w3.org/2000/svg">
<g clip-path="url(#clip0_1_2)">
<rect width="151" height="62" rx="10" fill="#E37200"/>
<path d="M97.24 56H98.44V48.48H92.18V50.08H96.74C96.84 52.7 95.12 54.74 92.16 54.74C88.98 54.74 87.26 52.02 87.26 49.04C87.26 46 88.7 42.98 92.16 42.98C94.3 42.98 96.02 43.96 96.4 46.12H98.3C97.78 42.78 95.26 41.38 92.16 41.38C87.64 41.38 85.36 44.98 85.36 49.14C85.36 52.88 87.9 56.34 92.16 56.34C93.82 56.34 95.62 55.7 96.74 54.22L97.24 56ZM102.756 41.72H101.056V43.8H102.756V41.72ZM101.056 56H102.756V45.66H101.056V56ZM107.749 42.56H106.049V45.66H104.289V47.16H106.049V53.74C106.049 55.64 106.749 56 108.509 56H109.809V54.5H109.029C107.969 54.5 107.749 54.38 107.749 53.58V47.16H109.809V45.66H107.749V42.56ZM111.698 56H113.398V50.16C113.398 48.3 114.398 46.92 116.458 46.92C117.758 46.92 118.558 47.72 118.558 49V56H120.258V49.2C120.258 46.98 119.418 45.42 116.698 45.42C115.478 45.42 113.978 45.92 113.438 47.18H113.398V41.72H111.698V56ZM131.371 45.66H129.671V51.5C129.671 53.36 128.671 54.74 126.611 54.74C125.311 54.74 124.511 53.94 124.511 52.66V45.66H122.811V52.46C122.811 54.68 123.651 56.24 126.371 56.24C127.871 56.24 129.011 55.64 129.731 54.36H129.771V56H131.371V45.66ZM133.985 56H135.685V54.62H135.725C136.465 55.84 138.025 56.24 139.065 56.24C142.225 56.24 143.785 53.8 143.785 50.86C143.785 47.94 142.205 45.42 139.025 45.42C137.585 45.42 136.285 45.92 135.725 47.06H135.685V41.72H133.985V56ZM141.985 50.74C141.985 52.76 141.205 54.74 138.885 54.74C136.545 54.74 135.625 52.84 135.625 50.82C135.625 48.9 136.485 46.92 138.785 46.92C140.985 46.92 141.985 48.8 141.985 50.74Z" fill="white"/>
<path fill-rule="evenodd" clip-rule="evenodd" d="M31.5 9C19.0687 9 9 19.0688 9 31.5C9 41.4563 15.4406 49.8656 24.3844 52.8469C25.5094 53.0438 25.9312 52.3688 25.9312 51.7781C25.9312 51.2438 25.9031 49.4719 25.9031 47.5875C20.25 48.6281 18.7875 46.2094 18.3375 44.9438C18.0844 44.2969 16.9875 42.3 16.0312 41.7656C15.2437 41.3438 14.1187 40.3031 16.0031 40.275C17.775 40.2469 19.0406 41.9063 19.4625 42.5813C21.4875 45.9844 24.7219 45.0281 26.0156 44.4375C26.2125 42.975 26.8031 41.9906 27.45 41.4281C22.4437 40.8656 17.2125 38.925 17.2125 30.3188C17.2125 27.8719 18.0844 25.8469 19.5188 24.2719C19.2938 23.7094 18.5062 21.4031 19.7437 18.3094C19.7437 18.3094 21.6281 17.7188 25.9312 20.6156C27.7312 20.1094 29.6438 19.8563 31.5563 19.8563C33.4688 19.8563 35.3813 20.1094 37.1813 20.6156C41.4844 17.6906 43.3688 18.3094 43.3688 18.3094C44.6063 21.4031 43.8188 23.7094 43.5938 24.2719C45.0281 25.8469 45.9 27.8438 45.9 30.3188C45.9 38.9531 40.6406 40.8656 35.6344 41.4281C36.45 42.1313 37.1531 43.4813 37.1531 45.5906C37.1531 48.6 37.125 51.0188 37.125 51.7781C37.125 52.3688 37.5469 53.0719 38.6719 52.8469C47.5594 49.8656 54 41.4281 54 31.5C54 19.0688 43.9313 9 31.5 9Z" fill="white"/>
</g>
<rect x="1" y="1" width="149" height="60" rx="9" stroke="white" stroke-width="2"/>
<defs>
<clipPath id="clip0_1_2">
<rect width="151" height="62" rx="10" fill="white"/>
</clipPath>
</defs>
</svg>
